<?xml version="1.0" encoding="UTF-8" standalone="no"?>
<svg
   xmlns:dc="http://purl.org/dc/elements/1.1/"
   xmlns:cc="http://creativecommons.org/ns#"
   xmlns:rdf="http://www.w3.org/1999/02/22-rdf-syntax-ns#"
   xmlns:svg="http://www.w3.org/2000/svg"
   xmlns="http://www.w3.org/2000/svg"
   xmlns:xlink="http://www.w3.org/1999/xlink"
   xmlns:sodipodi="http://sodipodi.sourceforge.net/DTD/sodipodi-0.dtd"
   xmlns:inkscape="http://www.inkscape.org/namespaces/inkscape"
   inkscape:version="1.0 (4035a4f, 2020-05-01)"
   sodipodi:docname="gradient_map_example.svg"
   id="svg8"
   version="1.1"
   viewBox="0 0 67.562125 51.950957"
   height="196.35007"
   width="255.35292">
  <defs
     id="defs2">
    <linearGradient
       id="linearGradient851"
       inkscape:collect="always">
      <stop
         id="stop847"
         offset="0"
         style="stop-color:#000000;stop-opacity:1" />
      <stop
         id="stop849"
         offset="1"
         style="stop-color:#ffffff;stop-opacity:1" />
    </linearGradient>
    <linearGradient
       id="linearGradient841"
       inkscape:collect="always">
      <stop
         id="stop837"
         offset="0"
         style="stop-color:#147edd;stop-opacity:1" />
      <stop
         style="stop-color:#e60052;stop-opacity:1"
         offset="0.5"
         id="stop845" />
      <stop
         id="stop839"
         offset="1"
         style="stop-color:#fbf9ce;stop-opacity:1" />
    </linearGradient>
    <linearGradient
       gradientTransform="matrix(1.9859551,0,0,0.99325865,-26.250419,0.23282353)"
       gradientUnits="userSpaceOnUse"
       y2="26.590834"
       x2="53.049168"
       y1="26.590834"
       x1="26.590834"
       id="linearGradient843"
       xlink:href="#linearGradient841"
       inkscape:collect="always" />
    <linearGradient
       gradientTransform="translate(-0.08655897)"
       gradientUnits="userSpaceOnUse"
       y2="37.156387"
       x2="79.189407"
       y1="37.156387"
       x1="26.644342"
       id="linearGradient853"
       xlink:href="#linearGradient851"
       inkscape:collect="always" />
  </defs>
  <sodipodi:namedview
     inkscape:window-maximized="1"
     inkscape:window-y="0"
     inkscape:window-x="0"
     inkscape:window-height="999"
     inkscape:window-width="1920"
     inkscape:snap-midpoints="true"
     units="px"
     showgrid="false"
     inkscape:document-rotation="0"
     inkscape:current-layer="layer1"
     inkscape:document-units="mm"
     inkscape:cy="93.299004"
     inkscape:cx="125.26183"
     inkscape:zoom="1.23"
     inkscape:pageshadow="2"
     inkscape:pageopacity="0.0"
     borderopacity="1.0"
     bordercolor="#666666"
     pagecolor="#ffffff"
     id="base" />
  <metadata
     id="metadata5">
    <rdf:RDF>
      <cc:Work
         rdf:about="">
        <dc:format>image/svg+xml</dc:format>
        <dc:type
           rdf:resource="http://purl.org/dc/dcmitype/StillImage" />
        <dc:title></dc:title>
      </cc:Work>
    </rdf:RDF>
  </metadata>
  <g
     transform="translate(-19.228025,-17.092255)"
     style="display:inline"
     id="layer1"
     inkscape:groupmode="layer"
     inkscape:label="layer">
    <rect
       inkscape:label="examplegradient"
       y="26.6444"
       x="26.557783"
       height="5.2559934"
       width="52.545063"
       id="rect833"
       style="fill:url(#linearGradient843);fill-opacity:1;stroke:none;stroke-width:0.371602;stroke-miterlimit:4;stroke-dasharray:none;stroke-dashoffset:0;stroke-opacity:1" />
    <rect
       inkscape:label="grayscalegradient"
       style="fill:url(#linearGradient853);fill-opacity:1;stroke:none;stroke-width:0.371475;stroke-miterlimit:4;stroke-dasharray:none;stroke-dashoffset:0;stroke-opacity:1"
       id="rect835"
       width="52.545063"
       height="5.2559934"
       x="26.557783"
       y="37.156387" />
    <g
       transform="translate(-0.08655897)"
       style="display:inline"
       inkscape:label="grayscale_stops2"
       id="g882">
      <rect
         style="fill:#020202;fill-opacity:1;stroke:none;stroke-width:0.0921377;stroke-miterlimit:4;stroke-dasharray:0.552825, 0.552825;stroke-dashoffset:0;stroke-opacity:1"
         id="rect867"
         width="15.875"
         height="5.2916665"
         x="26.458334"
         y="49.212502" />
      <rect
         y="49.212502"
         x="42.333336"
         height="5.2916718"
         width="20.97139"
         id="rect869"
         style="fill:#7d7d7d;fill-opacity:1;stroke:none;stroke-width:0.0921377;stroke-miterlimit:4;stroke-dasharray:0.552825, 0.552825;stroke-dashoffset:0;stroke-opacity:1" />
      <rect
         style="fill:#cbcbcb;fill-opacity:1;stroke:none;stroke-width:0.0921377;stroke-miterlimit:4;stroke-dasharray:none;stroke-dashoffset:0;stroke-opacity:1"
         id="rect871"
         width="11.686192"
         height="5.2916718"
         x="59.599911"
         y="49.212502" />
      <rect
         y="49.212502"
         x="71.286102"
         height="5.2916718"
         width="7.9813728"
         id="rect926"
         style="fill:#ffffff;fill-opacity:1;stroke:#000000;stroke-width:0.0921377;stroke-miterlimit:4;stroke-dasharray:none;stroke-dashoffset:0;stroke-opacity:1" />
    </g>
    <rect
       inkscape:label="crop_rect"
       y="17.092255"
       x="19.228025"
       height="51.950954"
       width="67.562126"
       id="rect899"
       style="fill:none;fill-opacity:1;stroke:none;stroke-width:0.0921377;stroke-miterlimit:4;stroke-dasharray:none;stroke-dashoffset:0;stroke-opacity:1" />
    <g
       transform="translate(-0.08655897,8.936239)"
       id="g936"
       inkscape:label="grayscale_stops2"
       style="display:inline">
      <rect
         y="49.212502"
         x="26.458334"
         height="5.2916665"
         width="15.875"
         id="rect928"
         style="fill:#177cdb;fill-opacity:1;stroke:none;stroke-width:0.0921377;stroke-miterlimit:4;stroke-dasharray:0.552825, 0.552825;stroke-dashoffset:0;stroke-opacity:1" />
      <rect
         style="fill:#e10355;fill-opacity:1;stroke:none;stroke-width:0.0921377;stroke-miterlimit:4;stroke-dasharray:0.552825, 0.552825;stroke-dashoffset:0;stroke-opacity:1"
         id="rect930"
         width="20.97139"
         height="5.2916718"
         x="42.333336"
         y="49.212502" />
      <rect
         y="49.212502"
         x="59.599911"
         height="5.2916718"
         width="11.686192"
         id="rect932"
         style="fill:#f2919a;fill-opacity:1;stroke:none;stroke-width:0.0921377;stroke-miterlimit:4;stroke-dasharray:none;stroke-dashoffset:0;stroke-opacity:1" />
      <rect
         style="fill:#fbf4cb;fill-opacity:1;stroke:none;stroke-width:0.0921377;stroke-miterlimit:4;stroke-dasharray:none;stroke-dashoffset:0;stroke-opacity:1"
         id="rect934"
         width="7.9813728"
         height="5.2916718"
         x="71.286102"
         y="49.212502" />
    </g>
    <path
       sodipodi:nodetypes="cccccccc"
       d="M 68.857815,17.130145 V 69.089922 M 52.982814,17.130145 V 69.089922 M 79.13352,17.130145 V 69.089922 M 26.524479,17.130145 v 51.959777"
       inkscape:label="light-line"
       style="fill:#ffffff;fill-opacity:1;stroke:#020100;stroke-width:0.118036;stroke-miterlimit:4;stroke-dasharray:0.708214, 0.708214;stroke-dashoffset:0;stroke-opacity:1"
       id="path865" />
    <g
       id="g1020">
      <g
         aria-label="0.0"
         id="text903"
         style="font-style:normal;font-variant:normal;font-weight:normal;font-stretch:normal;font-size:3.52778px;line-height:1000%;font-family:'Noto Sans';-inkscape-font-specification:'Noto Sans';text-align:center;text-decoration:none;text-decoration-line:none;text-decoration-color:#000000;text-orientation:upright;text-anchor:middle;fill:#000000;fill-opacity:1;stroke:none;stroke-width:0.0921377;stroke-miterlimit:4;stroke-dasharray:none;stroke-dashoffset:0;stroke-opacity:1">
        <path
           d="m 26.156258,22.378115 q 0,0.405694 -0.08467,0.6985 -0.08467,0.289278 -0.268111,0.4445 -0.183445,0.155223 -0.486834,0.155223 -0.426861,0 -0.631473,-0.342195 -0.201083,-0.345722 -0.201083,-0.956028 0,-0.409223 0.08114,-0.698501 0.08467,-0.289278 0.268111,-0.440972 0.183445,-0.155223 0.483306,-0.155223 0.423334,0 0.631473,0.342195 0.208139,0.338667 0.208139,0.952501 z m -1.361723,0 q 0,0.518583 0.116416,0.776111 0.119945,0.257528 0.405695,0.257528 0.282222,0 0.402167,-0.254 0.123472,-0.257528 0.123472,-0.779639 0,-0.515056 -0.123472,-0.772584 -0.119945,-0.257528 -0.402167,-0.257528 -0.28575,0 -0.405695,0.257528 -0.116416,0.257528 -0.116416,0.772584 z"
           style="font-size:3.52778px;fill:#000000;stroke-width:0.0921377"
           id="path976" />
        <path
           d="m 26.584056,23.45056 q 0,-0.130528 0.0635,-0.183445 0.0635,-0.05292 0.151695,-0.05292 0.09172,0 0.155222,0.05292 0.06703,0.05292 0.06703,0.183445 0,0.127 -0.06703,0.183444 -0.0635,0.05645 -0.155222,0.05645 -0.0882,0 -0.151695,-0.05645 -0.0635,-0.05644 -0.0635,-0.183444 z"
           style="font-size:3.52778px;fill:#000000;stroke-width:0.0921377"
           id="path978" />
        <path
           d="m 29.119042,22.378115 q 0,0.405694 -0.08467,0.6985 -0.08467,0.289278 -0.268111,0.4445 -0.183445,0.155223 -0.486834,0.155223 -0.426861,0 -0.631473,-0.342195 -0.201083,-0.345722 -0.201083,-0.956028 0,-0.409223 0.08114,-0.698501 0.08467,-0.289278 0.268111,-0.440972 0.183445,-0.155223 0.483306,-0.155223 0.423334,0 0.631473,0.342195 0.208139,0.338667 0.208139,0.952501 z m -1.361723,0 q 0,0.518583 0.116416,0.776111 0.119945,0.257528 0.405695,0.257528 0.282223,0 0.402167,-0.254 0.123472,-0.257528 0.123472,-0.779639 0,-0.515056 -0.123472,-0.772584 -0.119944,-0.257528 -0.402167,-0.257528 -0.28575,0 -0.405695,0.257528 -0.116416,0.257528 -0.116416,0.772584 z"
           style="font-size:3.52778px;fill:#000000;stroke-width:0.0921377"
           id="path980" />
      </g>
      <g
         aria-label="0.5"
         id="text907"
         style="font-style:normal;font-variant:normal;font-weight:normal;font-stretch:normal;font-size:3.52777px;line-height:1000%;font-family:'Noto Sans';-inkscape-font-specification:'Noto Sans';text-align:center;text-decoration:none;text-decoration-line:none;text-decoration-color:#000000;text-orientation:upright;text-anchor:middle;fill:#000000;fill-opacity:1;stroke:none;stroke-width:0.0921377;stroke-miterlimit:4;stroke-dasharray:none;stroke-dashoffset:0;stroke-opacity:1">
        <path
           d="m 52.250721,22.306673 q 0,0.405693 -0.08467,0.698498 -0.08467,0.289277 -0.26811,0.444499 -0.183444,0.155222 -0.486832,0.155222 -0.42686,0 -0.631471,-0.342194 -0.201083,-0.345721 -0.201083,-0.956025 0,-0.409222 0.08114,-0.698499 0.08467,-0.289277 0.26811,-0.440971 0.183444,-0.155222 0.483305,-0.155222 0.423332,0 0.631471,0.342194 0.208138,0.338666 0.208138,0.952498 z m -1.361719,0 q 0,0.518582 0.116416,0.776109 0.119944,0.257527 0.405694,0.257527 0.282221,0 0.402165,-0.253999 0.123472,-0.257527 0.123472,-0.779637 0,-0.515055 -0.123472,-0.772582 -0.119944,-0.257527 -0.402165,-0.257527 -0.28575,0 -0.405694,0.257527 -0.116416,0.257527 -0.116416,0.772582 z"
           style="stroke-width:0.0921377"
           id="path983" />
        <path
           d="m 52.678518,23.379115 q 0,-0.130528 0.0635,-0.183444 0.0635,-0.05292 0.151694,-0.05292 0.09172,0 0.155222,0.05292 0.06703,0.05292 0.06703,0.183444 0,0.127 -0.06703,0.183444 -0.0635,0.05644 -0.155222,0.05644 -0.08819,0 -0.151694,-0.05644 -0.0635,-0.05644 -0.0635,-0.183444 z"
           style="stroke-width:0.0921377"
           id="path985" />
        <path
           d="m 54.33861,22.024451 q 0.388054,0 0.617359,0.194027 0.229306,0.194028 0.229306,0.546805 0,0.391582 -0.250472,0.61736 -0.246944,0.222249 -0.691443,0.222249 -0.194027,0 -0.366888,-0.03528 -0.169333,-0.03528 -0.28575,-0.102305 v -0.292805 q 0.127,0.07761 0.306916,0.123472 0.183445,0.04233 0.34925,0.04233 0.278694,0 0.448026,-0.130527 0.172861,-0.134055 0.172861,-0.412749 0,-0.246944 -0.151694,-0.377472 -0.151694,-0.134055 -0.479777,-0.134055 -0.09878,0 -0.225777,0.01764 -0.127,0.01764 -0.204611,0.03528 l -0.155221,-0.09878 0.09525,-1.188858 h 1.262942 v 0.282221 h -0.998359 l -0.05997,0.730249 q 0.05997,-0.01058 0.162277,-0.0247 0.102306,-0.01411 0.225778,-0.01411 z"
           style="stroke-width:0.0921377"
           id="path987" />
      </g>
      <g
         aria-label="1.0"
         id="text911"
         style="font-style:normal;font-variant:normal;font-weight:normal;font-stretch:normal;font-size:3.52777px;line-height:1000%;font-family:'Noto Sans';-inkscape-font-specification:'Noto Sans';text-align:center;text-decoration:none;text-decoration-line:none;text-decoration-color:#000000;text-orientation:upright;text-anchor:middle;fill:#000000;fill-opacity:1;stroke:none;stroke-width:0.0921377;stroke-miterlimit:4;stroke-dasharray:none;stroke-dashoffset:0;stroke-opacity:1">
        <path
           d="m 77.77498,23.489077 h -0.303388 v -1.760358 q 0,-0.151694 0.0035,-0.243416 0.0035,-0.09172 0.01058,-0.190499 -0.05644,0.05644 -0.102306,0.09525 -0.04586,0.03881 -0.116416,0.09878 l -0.268111,0.218722 -0.162277,-0.208139 0.68086,-0.529165 h 0.257527 z"
           style="stroke-width:0.0921377"
           id="path990" />
        <path
           d="m 78.795442,23.298577 q 0,-0.130527 0.0635,-0.183444 0.0635,-0.05292 0.151694,-0.05292 0.09172,0 0.155222,0.05292 0.06703,0.05292 0.06703,0.183444 0,0.127 -0.06703,0.183444 -0.0635,0.05644 -0.155222,0.05644 -0.08819,0 -0.151694,-0.05644 -0.0635,-0.05644 -0.0635,-0.183444 z"
           style="stroke-width:0.0921377"
           id="path992" />
        <path
           d="m 81.330421,22.226135 q 0,0.405693 -0.08467,0.698498 -0.08467,0.289278 -0.26811,0.444499 -0.183444,0.155222 -0.486832,0.155222 -0.42686,0 -0.631471,-0.342193 -0.201083,-0.345722 -0.201083,-0.956026 0,-0.409221 0.08114,-0.698499 0.08467,-0.289277 0.26811,-0.440971 0.183444,-0.155222 0.483305,-0.155222 0.423332,0 0.631471,0.342194 0.208138,0.338666 0.208138,0.952498 z m -1.361719,0 q 0,0.518582 0.116416,0.776109 0.119944,0.257528 0.405694,0.257528 0.282221,0 0.402165,-0.254 0.123472,-0.257527 0.123472,-0.779637 0,-0.515054 -0.123472,-0.772582 -0.119944,-0.257527 -0.402165,-0.257527 -0.28575,0 -0.405694,0.257527 -0.116416,0.257528 -0.116416,0.772582 z"
           style="stroke-width:0.0921377"
           id="path994" />
      </g>
      <g
         aria-label="0.8

"
         id="text940"
         style="font-style:normal;font-variant:normal;font-weight:normal;font-stretch:normal;font-size:3.52777px;line-height:1000%;font-family:'Noto Sans';-inkscape-font-specification:'Noto Sans';text-align:center;text-decoration:none;text-decoration-line:none;text-decoration-color:#000000;text-orientation:upright;text-anchor:middle;fill:#000000;fill-opacity:1;stroke:none;stroke-width:0.0921377;stroke-miterlimit:4;stroke-dasharray:none;stroke-dashoffset:0;stroke-opacity:1">
        <path
           d="m 68.201637,22.306673 q 0,0.405693 -0.08467,0.698498 -0.08467,0.289277 -0.268111,0.444499 -0.183444,0.155222 -0.486832,0.155222 -0.42686,0 -0.631471,-0.342194 -0.201083,-0.345721 -0.201083,-0.956025 0,-0.409222 0.08114,-0.698499 0.08467,-0.289277 0.268111,-0.440971 0.183444,-0.155222 0.483304,-0.155222 0.423332,0 0.631471,0.342194 0.208138,0.338666 0.208138,0.952498 z m -1.361719,0 q 0,0.518582 0.116416,0.776109 0.119945,0.257527 0.405694,0.257527 0.282222,0 0.402166,-0.253999 0.123472,-0.257527 0.123472,-0.779637 0,-0.515055 -0.123472,-0.772582 -0.119944,-0.257527 -0.402166,-0.257527 -0.285749,0 -0.405694,0.257527 -0.116416,0.257527 -0.116416,0.772582 z"
           style="stroke-width:0.0921377"
           id="path997" />
        <path
           d="m 68.629434,23.379115 q 0,-0.130528 0.0635,-0.183444 0.0635,-0.05292 0.151694,-0.05292 0.09172,0 0.155222,0.05292 0.06703,0.05292 0.06703,0.183444 0,0.127 -0.06703,0.183444 -0.0635,0.05644 -0.155222,0.05644 -0.08819,0 -0.151694,-0.05644 -0.0635,-0.05644 -0.0635,-0.183444 z"
           style="stroke-width:0.0921377"
           id="path999" />
        <path
           d="m 70.324804,21.015509 q 0.33161,0 0.543276,0.155222 0.211666,0.155222 0.211666,0.448027 0,0.151694 -0.06703,0.264582 -0.0635,0.112889 -0.172861,0.201083 -0.109361,0.08467 -0.239888,0.151694 0.155222,0.07408 0.282221,0.169333 0.127,0.09172 0.201083,0.215194 0.07761,0.123472 0.07761,0.296333 0,0.317499 -0.225777,0.504471 -0.22225,0.183444 -0.599721,0.183444 -0.405694,0 -0.624415,-0.176388 -0.218722,-0.179917 -0.218722,-0.500944 0,-0.17286 0.07055,-0.29986 0.07408,-0.127 0.194028,-0.218722 0.119944,-0.09172 0.257527,-0.155222 -0.183444,-0.105833 -0.313972,-0.253999 -0.126999,-0.151694 -0.126999,-0.384527 0,-0.194028 0.09878,-0.324555 0.09878,-0.134055 0.268111,-0.204611 0.169333,-0.07055 0.384527,-0.07055 z m -0.0035,0.250472 q -0.194027,0 -0.321027,0.09525 -0.123472,0.09172 -0.123472,0.268111 0,0.130527 0.05997,0.218722 0.0635,0.08819 0.169333,0.151694 0.105833,0.05997 0.232833,0.116416 0.183444,-0.07761 0.306916,-0.186972 0.126999,-0.109361 0.126999,-0.29986 0,-0.176389 -0.123471,-0.268111 -0.123472,-0.09525 -0.328083,-0.09525 z m -0.525638,1.665107 q 0,0.183444 0.130528,0.306916 0.130527,0.119944 0.402165,0.119944 0.257528,0 0.391583,-0.119944 0.137583,-0.123472 0.137583,-0.317499 0,-0.183444 -0.144639,-0.303389 -0.144638,-0.123471 -0.384527,-0.215193 l -0.05644,-0.02117 q -0.232833,0.09878 -0.356305,0.229305 -0.119944,0.127 -0.119944,0.321027 z"
           style="stroke-width:0.0921377"
           id="path1001" />
      </g>
    </g>
  </g>
</svg>
